<svg width="228" height="244" viewBox="0 0 228 244" fill="none" xmlns="http://www.w3.org/2000/svg">
    <path d="M191.425 26.4351L186.798 25.0443C186.6 24.9847 186.392 25.0043 186.224 25.0985L182.291 27.2972C181.735 27.6079 181.008 27.0672 181.153 26.4506L182.175 22.087C182.219 21.9002 182.18 21.6972 182.067 21.5251L179.423 17.5075C179.049 16.9399 179.545 16.2839 180.199 16.4803L184.826 17.8711C185.024 17.9307 185.231 17.911 185.4 17.8169L189.333 15.6181C189.889 15.3074 190.616 15.8482 190.471 16.4648L189.449 20.8283C189.405 21.0152 189.444 21.2182 189.557 21.3903L192.201 25.4078C192.575 25.9756 192.079 26.6318 191.425 26.4351Z" fill="#EADEF2"/>
    <path d="M210.616 43.9986L207.183 42.967C207.036 42.9229 206.882 42.9375 206.757 43.0072L203.84 44.6384C203.427 44.8688 202.888 44.4677 202.995 44.0104L203.754 40.7732C203.786 40.6345 203.757 40.4841 203.673 40.3564L201.712 37.3762C201.435 36.9551 201.803 36.4683 202.288 36.614L205.72 37.6457C205.867 37.6897 206.021 37.6753 206.146 37.6054L209.063 35.9744C209.476 35.744 210.015 36.1451 209.908 36.6024L209.149 39.8394C209.117 39.9781 209.146 40.1287 209.23 40.2562L211.191 43.2365C211.468 43.6576 211.1 44.1445 210.616 43.9986Z" fill="#EADEF2"/>
    <path d="M209.469 26.0361C210.94 27.3036 213.19 27.1177 214.495 25.6208C215.801 24.124 215.666 21.883 214.196 20.6156C212.725 19.3481 210.474 19.534 209.169 21.0308C207.864 22.5277 207.998 24.7686 209.469 26.0361Z" fill="#F2F2F2"/>
    <path d="M167.719 30.1773C168.567 30.2298 169.297 29.5879 169.35 28.7434C169.403 27.8989 168.758 27.1717 167.911 27.1192C167.063 27.0666 166.332 27.7086 166.279 28.553C166.226 29.3975 166.871 30.1247 167.719 30.1773Z" fill="#F2F2F2"/>
    <path d="M30.6221 204.603L26.934 201.594C26.7761 201.465 26.6799 201.284 26.6679 201.092L26.3865 196.616C26.3468 195.984 25.4954 195.694 25.0535 196.162L21.9265 199.477C21.7926 199.619 21.5999 199.702 21.3932 199.706L16.566 199.815C15.8841 199.831 15.5996 200.61 16.1206 201.035L19.8087 204.044C19.9666 204.173 20.0627 204.355 20.0748 204.546L20.3561 209.022C20.3959 209.655 21.2473 209.945 21.6891 209.476L24.8162 206.161C24.9501 206.019 25.1428 205.937 25.3495 205.932L30.1766 205.823C30.8587 205.807 31.1433 205.028 30.6221 204.603Z" fill="#EADEF2"/>
    <path d="M55.9524 210.772L53.2168 208.54C53.0997 208.445 53.0284 208.31 53.0194 208.168L52.8107 204.848C52.7812 204.379 52.1496 204.164 51.8219 204.511L49.5023 206.97C49.4029 207.075 49.26 207.137 49.1067 207.14L45.5261 207.221C45.0202 207.233 44.8091 207.81 45.1957 208.126L47.9313 210.358C48.0484 210.454 48.1197 210.588 48.1287 210.73L48.3375 214.05C48.367 214.52 48.9985 214.735 49.3262 214.387L51.6458 211.928C51.7452 211.823 51.8881 211.761 52.0414 211.758L55.622 211.677C56.1279 211.666 56.339 211.088 55.9524 210.772Z" fill="#EADEF2"/>
    <path d="M40.403 219.832C42.2554 220.308 43.2978 222.261 42.7313 224.194C42.1649 226.127 40.204 227.309 38.3516 226.833C36.4993 226.357 35.4569 224.405 36.0233 222.471C36.5898 220.538 38.5506 219.357 40.403 219.832Z" fill="#F2F2F2"/>
    <path d="M27.5773 184.15C28.092 184.823 27.9613 185.784 27.2854 186.297C26.6094 186.81 25.6442 186.679 25.1294 186.006C24.6147 185.333 24.7454 184.372 25.4214 183.859C26.0973 183.347 27.0626 183.477 27.5773 184.15Z" fill="#F2F2F2"/>
    <path fill-rule="evenodd" clip-rule="evenodd" d="M178.498 39.1796C184.7 39.1796 189.972 45.767 189.972 54.0014C189.972 59.3537 183.46 68.8232 183.46 76.2342C183.46 83.6451 189.972 98.8786 189.972 113.289C189.972 127.699 183.46 143.344 183.46 150.343C183.46 157.343 189.972 167.224 189.972 172.576C189.972 180.81 184.7 187.398 178.498 187.398C174.156 187.398 158.341 179.164 152.759 179.164C147.178 179.164 138.805 187.398 132.603 187.398C126.401 187.398 123.61 179.164 115.547 179.164C107.485 179.164 101.593 187.398 95.3907 187.398C89.1886 187.398 86.0876 179.164 78.3351 179.164C70.5825 179.164 56.938 187.398 52.5966 187.398C46.3946 187.398 41.1229 180.81 41.1229 172.576C41.1229 167.224 47.635 157.754 47.635 150.343C47.635 142.932 41.1229 128.522 41.1229 113.289C41.1229 98.0552 47.635 83.2334 47.635 76.2342C47.635 69.235 41.1229 59.3537 41.1229 54.0014C41.1229 45.767 46.3946 39.1796 52.5966 39.1796C56.938 39.1796 73.0633 47.8256 78.3351 47.8256C83.6068 47.8256 92.2896 39.1796 98.4917 39.1796C104.694 39.1796 107.795 47.8256 115.547 47.8256C123.3 47.8256 129.502 39.1796 135.704 39.1796C141.906 39.1796 145.007 47.8256 152.759 47.8256C160.512 47.8256 174.156 39.1796 178.498 39.1796ZM171.366 59.855H115.547H59.729V166.723H171.366V59.855Z" fill="#E6E6E6"/>
    <path fill-rule="evenodd" clip-rule="evenodd" d="M107.4 127.966C107.4 127.966 107.093 128.164 106.555 128.511C106.288 128.684 105.964 128.893 105.592 129.133C105.224 129.376 104.809 129.649 104.356 129.947C103.904 130.245 103.42 130.573 102.909 130.922C102.392 131.259 101.867 131.645 101.311 132.02C100.766 132.411 100.202 132.814 99.6298 133.224C99.3486 133.435 99.0652 133.647 98.7806 133.861C98.4919 134.068 98.2068 134.283 97.9315 134.51C97.37 134.949 96.8011 135.38 96.2688 135.837C96.0002 136.062 95.731 136.283 95.4626 136.499C95.1982 136.719 94.9535 136.955 94.6989 137.172C94.4464 137.392 94.1982 137.608 93.9552 137.82C93.7138 138.034 93.495 138.26 93.2685 138.468C92.8257 138.893 92.3776 139.272 92.0138 139.668C91.642 140.056 91.287 140.404 90.9703 140.713C90.6785 141.041 90.4174 141.325 90.2004 141.559C89.7668 142.027 89.5017 142.288 89.5017 142.288L89.5198 142.25C89.55 142.186 89.6175 142.046 89.7201 141.843C89.7851 141.714 89.8627 141.563 89.9563 141.385C90.1084 141.101 90.2864 140.748 90.5147 140.359C90.7592 139.984 91.0374 139.559 91.3563 139.104C91.6586 138.635 92.0442 138.176 92.4466 137.683C92.6495 137.439 92.8554 137.183 93.0779 136.935C93.308 136.694 93.5431 136.447 93.7821 136.196C94.2553 135.687 94.777 135.197 95.3237 134.718C95.8542 134.218 96.4402 133.77 97.0161 133.309C97.2088 133.154 97.4097 133.011 97.6089 132.866C97.2897 132.605 96.9756 132.337 96.6653 132.062C99.4853 130.617 104.922 128.782 105.336 128.617C105.755 128.462 106.123 128.335 106.43 128.24C107.04 128.043 107.4 127.966 107.4 127.966ZM122.076 127.966C122.076 127.966 122.437 128.043 123.047 128.24C123.354 128.335 123.721 128.462 124.141 128.617C124.554 128.782 129.991 130.617 132.811 132.062C132.501 132.337 132.187 132.605 131.868 132.866C132.067 133.011 132.268 133.154 132.46 133.309C133.036 133.77 133.622 134.218 134.153 134.718C134.7 135.197 135.221 135.687 135.695 136.196C135.934 136.447 136.169 136.694 136.399 136.935C136.621 137.183 136.827 137.439 137.03 137.683C137.432 138.176 137.818 138.635 138.12 139.104C138.439 139.559 138.717 139.984 138.962 140.359C139.19 140.748 139.368 141.101 139.52 141.385C139.614 141.563 139.692 141.714 139.757 141.843L139.863 142.056C139.937 142.206 139.975 142.288 139.975 142.288C139.975 142.288 139.71 142.027 139.276 141.559C139.059 141.325 138.798 141.041 138.506 140.713C138.19 140.404 137.835 140.056 137.463 139.668C137.099 139.272 136.651 138.893 136.208 138.468C135.982 138.26 135.763 138.034 135.521 137.82C135.278 137.608 135.03 137.392 134.778 137.172C134.523 136.955 134.278 136.719 134.014 136.499C133.746 136.283 133.476 136.062 133.208 135.837C132.676 135.38 132.107 134.949 131.545 134.51C131.27 134.283 130.985 134.068 130.696 133.861C130.411 133.647 130.128 133.435 129.847 133.224C129.274 132.814 128.711 132.411 128.165 132.02C127.609 131.645 127.084 131.259 126.567 130.922C126.057 130.573 125.573 130.245 125.121 129.947C124.668 129.649 124.252 129.376 123.884 129.133C123.513 128.893 123.188 128.684 122.921 128.511C122.384 128.164 122.076 127.966 122.076 127.966ZM109.905 128.31C109.905 128.31 109.804 128.394 109.621 128.547C109.239 128.867 108.492 129.49 107.527 130.297C107.177 130.595 106.798 130.918 106.396 131.259C105.991 131.592 105.582 131.966 105.146 132.334C104.72 132.712 104.279 133.102 103.831 133.499C103.401 133.914 102.932 134.3 102.506 134.73C102.067 135.148 101.623 135.559 101.209 135.988C101 136.2 100.791 136.408 100.58 136.612C100.374 136.819 100.186 137.037 99.9871 137.24C99.7904 137.445 99.5969 137.647 99.4075 137.845C99.2192 138.044 99.0514 138.252 98.8749 138.444C98.5316 138.837 98.1784 139.191 97.8979 139.551C97.6109 139.907 97.3328 140.226 97.0844 140.51C96.8594 140.808 96.6551 141.066 96.4856 141.279C96.1466 141.705 95.9349 141.945 95.9349 141.945C95.9349 141.945 96.0292 141.646 96.2256 141.13C96.3076 140.92 96.4009 140.667 96.5171 140.39C96.5428 140.328 96.5683 140.267 96.5965 140.203C96.7666 139.86 96.9607 139.471 97.1888 139.055C97.4007 138.627 97.684 138.201 97.9805 137.745C98.1299 137.518 98.282 137.283 98.4482 137.051C98.6219 136.825 98.7993 136.594 98.9797 136.36C99.3365 135.885 99.7362 135.422 100.16 134.968C100.202 134.919 100.249 134.874 100.293 134.826C100.05 134.668 99.8077 134.511 99.5689 134.346C102.169 132.355 104.574 130.933 106.065 130.124C106.037 130.146 106.008 130.167 105.979 130.189C106.123 130.101 106.264 130.013 106.405 129.933C106.627 129.811 106.841 129.692 107.047 129.579C107.453 129.345 107.848 129.167 108.189 128.998C108.535 128.837 108.839 128.705 109.095 128.604C109.275 128.53 109.428 128.472 109.553 128.427C109.778 128.346 109.905 128.31 109.905 128.31ZM119.571 128.31C119.571 128.31 119.699 128.346 119.924 128.427C120.048 128.472 120.201 128.53 120.382 128.604C120.637 128.705 120.942 128.837 121.288 128.998C121.629 129.167 122.024 129.345 122.43 129.579C122.635 129.692 122.85 129.811 123.071 129.933C123.212 130.013 123.354 130.101 123.497 130.189C123.468 130.167 123.44 130.146 123.411 130.124C124.902 130.933 127.308 132.355 129.908 134.346C129.669 134.511 129.426 134.668 129.184 134.826C129.227 134.874 129.275 134.919 129.317 134.968C129.74 135.422 130.14 135.885 130.497 136.36C130.677 136.594 130.855 136.825 131.028 137.051C131.195 137.283 131.347 137.518 131.496 137.745C131.793 138.201 132.076 138.627 132.288 139.055C132.516 139.471 132.71 139.86 132.88 140.203C132.908 140.267 132.934 140.328 132.96 140.39C133.076 140.667 133.169 140.92 133.251 141.13C133.447 141.646 133.542 141.945 133.542 141.945C133.542 141.945 133.33 141.705 132.991 141.279C132.822 141.066 132.617 140.808 132.392 140.51C132.144 140.226 131.866 139.907 131.579 139.551C131.298 139.191 130.945 138.837 130.602 138.444C130.425 138.252 130.257 138.044 130.069 137.845C129.88 137.647 129.686 137.445 129.49 137.24C129.291 137.037 129.103 136.819 128.896 136.612C128.686 136.408 128.476 136.2 128.267 135.988C127.854 135.559 127.409 135.148 126.971 134.73L126.533 134.312C126.236 134.039 125.932 133.776 125.645 133.499C125.198 133.102 124.757 132.712 124.331 132.334C123.894 131.966 123.486 131.592 123.08 131.259C122.679 130.918 122.3 130.595 121.949 130.297C120.984 129.49 120.238 128.867 119.855 128.547C119.672 128.394 119.571 128.31 119.571 128.31ZM129.735 100.962C130.568 100.962 131.38 101.049 132.164 101.212C136.811 102.182 140.467 105.877 141.411 110.565H142.954C143.355 110.565 143.681 110.892 143.681 111.297V114.629C143.681 115.033 143.355 115.361 142.954 115.361H141.411C140.308 120.84 135.5 124.963 129.735 124.963C129.26 124.963 128.792 124.934 128.331 124.88C129.471 125.241 130.684 125.436 131.941 125.436C135.04 125.436 137.865 124.255 139.998 122.315C139.236 124.094 138.251 125.811 137.053 127.44L137.115 127.461C137.807 127.677 138.482 127.912 139.119 128.184C139.438 128.316 139.752 128.445 140.06 128.571C140.363 128.708 140.654 128.858 140.938 128.998C141.504 129.285 142.041 129.547 142.506 129.853C142.98 130.139 143.406 130.413 143.78 130.658C144.145 130.919 144.45 131.169 144.703 131.367C145.175 131.742 145.447 131.976 145.479 132.004C145.468 132.002 145.425 131.985 145.359 131.96L145.041 131.832C144.906 131.777 144.741 131.708 144.55 131.626C144.257 131.5 143.905 131.347 143.506 131.166C143.092 131.013 142.628 130.84 142.131 130.636C141.639 130.423 141.077 130.26 140.501 130.051C140.211 129.953 139.92 129.836 139.613 129.739C139.306 129.644 138.992 129.547 138.673 129.449C138.352 129.356 138.034 129.239 137.705 129.147C137.373 129.058 137.037 128.966 136.701 128.87C136.031 128.67 135.337 128.508 134.646 128.334C134.303 128.239 133.957 128.16 133.609 128.087C133.264 128.008 132.919 127.93 132.577 127.852C131.889 127.71 131.212 127.571 130.556 127.437C129.896 127.321 129.262 127.181 128.653 127.084C128.046 126.974 127.471 126.871 126.939 126.783C126.404 126.696 125.915 126.615 125.48 126.543C125.045 126.476 124.664 126.416 124.351 126.368C124.003 126.314 123.742 126.274 123.573 126.247C123.435 126.226 123.359 126.214 123.359 126.214C123.359 126.214 123.435 126.198 123.573 126.175C123.742 126.147 124.005 126.107 124.355 126.069C124.674 126.03 125.061 125.997 125.508 125.968C125.857 125.953 126.242 125.927 126.657 125.921C126.771 125.92 126.886 125.919 127.005 125.921C127.086 125.921 127.175 125.92 127.258 125.92C127.408 125.512 127.467 125.116 127.468 124.745C124.415 124.153 121.776 122.386 120.034 119.93L119.203 122.716C119.199 122.715 119.193 122.712 119.19 122.711C119.025 123.743 117.138 123.772 115.24 126.526C115.279 126.602 115.318 126.674 115.361 126.753C115.453 126.918 115.565 127.082 115.672 127.256C115.784 127.426 115.919 127.594 116.047 127.769C116.33 128.106 116.64 128.45 117.013 128.754C117.368 129.074 117.796 129.335 118.231 129.58C118.675 129.818 119.16 129.984 119.652 130.125C119.869 130.177 120.091 130.215 120.314 130.245C121.764 131.217 124.504 133.212 127.189 136.018C123.236 138.181 118.941 139.379 114.768 139.411C114.759 139.413 114.748 139.412 114.738 139.412L114.723 139.412L114.709 139.413C110.536 139.379 106.24 138.181 102.288 136.018C104.972 133.212 107.713 131.217 109.163 130.245C109.386 130.215 109.607 130.177 109.825 130.125C110.317 129.984 110.801 129.818 111.245 129.58C111.681 129.335 112.108 129.074 112.463 128.754C112.837 128.45 113.147 128.106 113.43 127.769C113.557 127.594 113.693 127.426 113.805 127.256C113.912 127.082 114.024 126.918 114.116 126.753C114.159 126.674 114.198 126.602 114.237 126.526C112.338 123.772 110.451 123.743 110.287 122.711C110.283 122.712 110.277 122.715 110.274 122.716L109.443 119.93C107.701 122.386 105.062 124.153 102.008 124.745C102.009 125.116 102.068 125.512 102.219 125.92C102.302 125.92 102.39 125.921 102.471 125.921C102.59 125.919 102.706 125.92 102.82 125.921C103.234 125.927 103.62 125.953 103.969 125.968C104.415 125.997 104.802 126.03 105.121 126.069C105.471 126.107 105.734 126.147 105.903 126.175C106.042 126.198 106.118 126.214 106.118 126.214C106.118 126.214 106.042 126.226 105.903 126.247C105.734 126.274 105.474 126.314 105.126 126.368C104.813 126.416 104.432 126.476 103.996 126.543C103.562 126.615 103.072 126.696 102.538 126.783C102.006 126.871 101.431 126.974 100.823 127.084C100.215 127.181 99.5806 127.321 98.921 127.437C98.265 127.571 97.5876 127.71 96.8995 127.852C96.5579 127.93 96.2126 128.008 95.8673 128.087C95.5197 128.16 95.1732 128.239 94.8304 128.334C94.1399 128.508 93.4458 128.67 92.7756 128.87C92.4398 128.966 92.1041 129.058 91.7719 129.147C91.4422 129.239 91.1243 129.356 90.804 129.449C90.485 129.547 90.1707 129.644 89.8635 129.739C89.5564 129.836 89.2659 129.953 88.9754 130.051C88.3992 130.26 87.8372 130.423 87.3456 130.636C86.8491 130.84 86.3848 131.013 85.9705 131.166C85.5717 131.347 85.2193 131.5 84.9264 131.626C84.7359 131.708 84.5711 131.777 84.4352 131.832L84.118 131.96C84.0514 131.985 84.0085 132.002 83.9978 132.004C84.03 131.976 84.3014 131.742 84.774 131.367C85.0264 131.169 85.3312 130.919 85.6967 130.658C86.0705 130.413 86.4967 130.139 86.9705 129.853C87.436 129.547 87.973 129.285 88.5385 128.998C88.823 128.858 89.1135 128.708 89.4171 128.571C89.7242 128.445 90.0385 128.316 90.3576 128.184C90.9945 127.912 91.6696 127.677 92.3613 127.461L92.4232 127.44C91.2255 125.811 90.2409 124.094 89.4789 122.315C91.6111 124.255 94.4361 125.436 97.5353 125.436C98.7931 125.436 100.006 125.241 101.145 124.88C100.685 124.934 100.217 124.963 99.7415 124.963C93.9771 124.963 89.169 120.84 88.0658 115.361H86.5229C86.1215 115.361 85.7961 115.033 85.7961 114.629V111.297C85.7961 110.892 86.1215 110.565 86.5229 110.565H88.0658C89.0097 105.877 92.6657 102.182 97.3123 101.212C98.0966 101.049 98.909 100.962 99.7415 100.962C104.465 100.962 108.546 103.731 110.473 107.744C111.777 107.158 113.22 106.832 114.738 106.832C116.256 106.832 117.7 107.158 119.004 107.744C120.931 103.731 125.012 100.962 129.735 100.962ZM114.738 130.545C113.834 130.545 113.297 130.994 112.867 131.25C112.737 131.328 112.637 131.448 112.516 131.543C112.37 131.647 112.224 131.755 112.073 131.857C111.92 131.958 111.755 132.038 111.593 132.13C111.273 132.321 110.916 132.448 110.561 132.582C109.926 132.802 109.251 132.907 108.573 132.946C108.573 132.946 108.785 133.934 108.979 134.2C110.762 136.645 114.097 136.7 114.738 136.74C115.38 136.7 118.715 136.645 120.498 134.2C120.692 133.934 120.904 132.946 120.904 132.946C120.225 132.907 119.55 132.802 118.916 132.582C118.561 132.448 118.204 132.321 117.884 132.13C117.722 132.038 117.556 131.958 117.404 131.857C117.253 131.755 117.106 131.647 116.961 131.543C116.84 131.448 116.74 131.328 116.61 131.25C116.18 130.994 115.507 130.545 114.738 130.545ZM107.629 126.678C107.629 126.678 107.532 126.713 107.354 126.777C107.194 126.835 106.969 126.916 106.684 127.019C106.386 127.126 106.023 127.257 105.608 127.407C105.195 127.56 104.729 127.733 104.222 127.922C103.715 128.11 103.17 128.321 102.595 128.545C102.016 128.757 101.419 129.014 100.793 129.255C100.175 129.512 99.5362 129.778 98.887 130.048C98.566 130.191 98.2425 130.334 97.9177 130.478C97.5902 130.615 97.2646 130.76 96.9458 130.918C96.3008 131.22 95.6505 131.512 95.0301 131.837C94.7182 131.996 94.4068 132.151 94.0972 132.3C93.7905 132.455 93.4997 132.629 93.2032 132.783C92.9083 132.941 92.6182 133.096 92.3343 133.247C92.0516 133.401 91.7881 133.572 91.5211 133.724C90.9949 134.038 90.4738 134.307 90.0313 134.61C89.5825 134.905 89.1593 135.164 88.7818 135.394C88.4245 135.647 88.1069 135.865 87.8435 136.044C87.3169 136.402 87.0003 136.597 87.0003 136.597C87.0003 136.597 87.0368 136.55 87.1053 136.465C87.2099 136.335 87.3907 136.114 87.6442 135.819C87.8557 135.577 88.1075 135.273 88.4165 134.946C88.7384 134.635 89.104 134.283 89.5159 133.913C89.9149 133.523 90.3926 133.164 90.8945 132.774C91.1466 132.581 91.404 132.379 91.6762 132.187C91.9541 132.004 92.238 131.816 92.5268 131.626C93.1011 131.237 93.7185 130.877 94.358 130.533C94.5079 130.445 94.6606 130.362 94.8147 130.28C94.5736 130.028 94.3371 129.774 94.1074 129.516C96.0002 128.96 97.8167 128.57 99.4352 128.296C99.7427 128.191 100.044 128.078 100.349 127.993C101.009 127.797 101.645 127.603 102.259 127.461C102.566 127.389 102.862 127.312 103.152 127.251C103.443 127.194 103.724 127.14 103.994 127.087C104.53 126.973 105.033 126.914 105.473 126.847C105.916 126.79 106.302 126.749 106.622 126.726C106.925 126.7 107.165 126.688 107.335 126.683C107.411 126.68 107.473 126.679 107.521 126.678L107.629 126.678ZM121.956 126.678C122.003 126.679 122.066 126.68 122.141 126.683C122.312 126.688 122.552 126.7 122.854 126.726C123.174 126.749 123.561 126.79 124.004 126.847C124.444 126.914 124.947 126.973 125.483 127.087C125.753 127.14 126.034 127.194 126.325 127.251C126.615 127.312 126.911 127.389 127.218 127.461C127.832 127.603 128.468 127.797 129.127 127.993C129.432 128.078 129.734 128.191 130.041 128.296C131.66 128.57 133.476 128.96 135.369 129.516C135.14 129.774 134.903 130.028 134.662 130.28C134.816 130.362 134.969 130.445 135.119 130.533C135.758 130.877 136.376 131.237 136.95 131.626C137.239 131.816 137.523 132.004 137.8 132.187C138.073 132.379 138.33 132.581 138.582 132.774C139.084 133.164 139.562 133.523 139.961 133.913C140.373 134.283 140.738 134.635 141.06 134.946C141.369 135.273 141.621 135.577 141.832 135.819C142.086 136.114 142.267 136.335 142.371 136.465C142.44 136.55 142.476 136.597 142.476 136.597C142.476 136.597 142.16 136.402 141.633 136.044C141.37 135.865 141.052 135.647 140.695 135.394C140.317 135.164 139.894 134.905 139.445 134.61C139.003 134.307 138.482 134.038 137.956 133.724C137.689 133.572 137.425 133.401 137.142 133.247C136.858 133.096 136.568 132.941 136.273 132.783C135.977 132.629 135.686 132.455 135.379 132.3C135.07 132.151 134.758 131.996 134.446 131.837L133.817 131.521C133.393 131.316 132.961 131.12 132.531 130.918C132.212 130.76 131.886 130.615 131.559 130.478C131.234 130.334 130.911 130.191 130.59 130.048C129.94 129.778 129.302 129.512 128.683 129.255C128.058 129.014 127.46 128.757 126.882 128.545C126.307 128.321 125.762 128.11 125.255 127.922C124.747 127.733 124.282 127.56 123.869 127.407C123.453 127.257 123.091 127.126 122.792 127.019C122.508 126.916 122.283 126.835 122.123 126.777C122.016 126.739 121.938 126.711 121.893 126.694L121.847 126.678L121.956 126.678ZM114.738 110.19C113.57 110.19 112.467 110.474 111.492 110.975C111.599 111.622 111.655 112.286 111.655 112.963C111.655 114.825 111.234 116.587 110.483 118.16L111.668 121.279C112.46 120.882 113.16 121.013 114.709 121.006V121.005H114.768C116.317 121.013 117.017 120.882 117.809 121.279L118.993 118.16C118.242 116.587 117.821 114.825 117.821 112.963C117.821 112.286 117.878 111.622 117.985 110.975C117.009 110.474 115.906 110.19 114.738 110.19ZM99.7415 103.864C99.2668 103.868 98.7929 103.912 98.3336 103.993C97.8746 104.078 97.4325 104.205 97.0175 104.357C96.8127 104.442 96.6092 104.516 96.4205 104.616C96.2291 104.707 96.0454 104.802 95.8728 104.907C95.7852 104.956 95.7017 105.01 95.6202 105.064C95.5384 105.117 95.4578 105.169 95.3805 105.222C95.23 105.338 95.082 105.442 94.9492 105.555C94.8191 105.672 94.6892 105.774 94.5786 105.888C94.4683 106.002 94.359 106.102 94.2679 106.21C94.1765 106.317 94.0902 106.415 94.0147 106.509C93.9406 106.607 93.8738 106.696 93.8163 106.779C93.7875 106.819 93.7602 106.858 93.7345 106.894C93.7116 106.932 93.6901 106.967 93.6702 107C93.6301 107.065 93.5973 107.122 93.5707 107.168C93.5186 107.262 93.4908 107.312 93.4908 107.312C93.4908 107.312 93.5417 107.286 93.6371 107.239L93.7157 107.198C93.8018 107.151 93.9101 107.089 94.0399 107.027C94.1242 106.984 94.2175 106.937 94.319 106.885C94.4244 106.838 94.5338 106.783 94.6514 106.727C94.8883 106.618 95.154 106.5 95.4441 106.385C95.5894 106.328 95.7415 106.272 95.8968 106.215C96.0573 106.167 96.2137 106.101 96.3835 106.056C96.7155 105.948 97.0721 105.866 97.4361 105.783C97.8037 105.711 98.1823 105.648 98.5685 105.605C98.9553 105.567 99.3481 105.546 99.7415 105.543C100.135 105.546 100.528 105.568 100.914 105.607C101.3 105.65 101.679 105.712 102.046 105.785C102.41 105.868 102.767 105.95 103.099 106.058C103.268 106.103 103.425 106.168 103.585 106.217C103.74 106.275 103.893 106.33 104.038 106.387C104.328 106.502 104.594 106.619 104.831 106.728C104.948 106.784 105.058 106.839 105.163 106.886C105.265 106.938 105.358 106.988 105.445 107.03C105.619 107.114 105.749 107.192 105.846 107.239C105.941 107.286 105.992 107.312 105.992 107.312C105.992 107.312 105.965 107.262 105.913 107.168C105.886 107.122 105.853 107.065 105.812 106.999C105.773 106.93 105.724 106.856 105.665 106.776C105.608 106.694 105.542 106.605 105.469 106.508C105.394 106.413 105.307 106.316 105.216 106.209C105.125 106.101 105.016 106.001 104.906 105.886C104.795 105.772 104.665 105.67 104.535 105.553C104.402 105.44 104.254 105.335 104.104 105.22C104.026 105.166 103.945 105.115 103.864 105.062C103.782 105.008 103.699 104.954 103.611 104.904C103.265 104.698 102.879 104.516 102.466 104.355C102.051 104.203 101.609 104.076 101.15 103.992C100.69 103.911 100.216 103.868 99.7415 103.864ZM138.921 82.6785C139.939 82.6785 140.836 82.931 141.586 83.4291C146.376 86.6098 142.975 98.748 140.25 104.566C138.707 103.08 136.773 102.005 134.618 101.511C133.939 100.753 133.102 99.916 132.118 99.1223C131.743 98.8205 131.328 98.5196 130.905 98.2305C133.544 98.3384 135.426 99.0429 135.426 99.0429C133.184 96.2915 128.038 96.1628 127.502 96.1569L127.457 96.1566C127.496 96.1083 127.536 96.0601 127.576 96.0118C128.435 95.444 130.982 95.0543 133.493 95.3505C133.493 95.3505 131.234 93.7443 129.55 93.7713C129.675 93.6388 132.999 91.6904 136.5 92.5108C136.5 92.5108 134.268 90.9577 132.456 90.9846C132.463 90.9787 132.47 90.9729 132.477 90.967C132.627 90.8436 135.143 88.8253 137.739 89.8065C137.739 89.8065 136.879 88.8077 135.264 88.8301C136.857 87.7909 138.155 87.3229 138.742 87.8028C139.902 88.7514 139.562 96.4525 138.068 101.156C140.932 94.6154 141.935 87.2891 139.93 85.9578C139.68 85.7918 139.341 85.7075 138.921 85.7075C136.042 85.7075 130.414 89.5429 126.107 94.4393L125.459 95.1764L124.527 94.8788C123.149 94.4384 122.609 94.2616 121.123 94.0185C118.762 95.4925 117.893 97.8255 117.893 97.8255C117.893 97.8255 116.933 95.7947 116.57 93.958C116.57 93.958 116.301 96.7943 114.738 99.6995C113.175 96.7943 112.907 93.958 112.907 93.958C112.544 95.7947 111.584 97.8255 111.584 97.8255C111.584 97.8255 110.714 95.4925 108.354 94.0185C106.867 94.2616 106.328 94.4384 104.949 94.8788L104.018 95.1764L103.369 94.4393C99.0627 89.5429 93.4341 85.7075 90.5556 85.7075C90.136 85.7075 89.7965 85.7918 89.5461 85.9578C87.5414 87.2891 88.5445 94.6154 91.4086 101.156C89.9144 96.4525 89.5745 88.7514 90.7347 87.8028C91.3216 87.3229 92.6195 87.7909 94.2126 88.8301C92.5978 88.8077 91.7372 89.8065 91.7372 89.8065C94.3332 88.8253 96.8497 90.8436 97 90.967C97.0068 90.9729 97.0136 90.9787 97.0205 90.9846C95.2088 90.9577 92.9768 92.5108 92.9768 92.5108C96.4774 91.6904 99.8012 93.6388 99.9267 93.7713C98.2431 93.7443 95.984 95.3505 95.984 95.3505C98.4941 95.0543 101.042 95.444 101.901 96.0118C101.94 96.0601 101.981 96.1083 102.02 96.1566L101.974 96.1569C101.439 96.1628 96.2926 96.2915 94.0501 99.0429C94.0501 99.0429 95.9329 98.3384 98.5716 98.2305C98.1484 98.5196 97.7332 98.8205 97.3588 99.1223C96.3742 99.916 95.5376 100.753 94.8585 101.511C92.7041 102.005 90.7695 103.08 89.2268 104.566C86.5016 98.748 83.1006 86.6098 87.8909 83.4291C88.6409 82.931 89.5375 82.6785 90.5556 82.6785C94.7852 82.6785 100.834 87.2314 104.97 91.71C108.01 90.8411 111.28 90.3967 114.708 90.3825V90.3814H114.768C118.196 90.3967 121.467 90.8411 124.506 91.71C128.643 87.2314 134.691 82.6785 138.921 82.6785Z" fill="url(#paint0_linear)"/>
    <path fill-rule="evenodd" clip-rule="evenodd" d="M126.064 107.317L127.486 106.039V110.118C128.192 109.577 129.108 109.25 130.108 109.25C132.342 109.25 134.153 110.878 134.153 112.886V118.455L132.731 119.733V115.654C132.025 116.195 131.109 116.522 130.108 116.522C127.875 116.522 126.064 114.894 126.064 112.886V107.317ZM130.108 110.529C131.557 110.529 132.731 111.584 132.731 112.886C132.731 114.188 131.557 115.243 130.108 115.243C128.66 115.243 127.486 114.188 127.486 112.886C127.486 111.584 128.66 110.529 130.108 110.529Z" fill="white" stroke="white" stroke-width="0.25"/>
    <defs>
        <linearGradient id="paint0_linear" x1="83.9978" y1="82.6785" x2="143.579" y2="144.13" gradientUnits="userSpaceOnUse">
            <stop stop-color="#F82507"/>
            <stop offset="0.65625" stop-color="#7622A9"/>
        </linearGradient>
    </defs>
</svg>
